<?xml version="1.0" encoding="UTF-8" standalone="no"?>
<!-- Created with Inkscape (http://www.inkscape.org/) -->

<svg
   xmlns:dc="http://purl.org/dc/elements/1.1/"
   xmlns:cc="http://creativecommons.org/ns#"
   xmlns:rdf="http://www.w3.org/1999/02/22-rdf-syntax-ns#"
   xmlns:svg="http://www.w3.org/2000/svg"
   xmlns="http://www.w3.org/2000/svg"
   xmlns:sodipodi="http://sodipodi.sourceforge.net/DTD/sodipodi-0.dtd"
   xmlns:inkscape="http://www.inkscape.org/namespaces/inkscape"
   width="256"
   height="256"
   id="svg2"
   version="1.1"
   inkscape:version="0.48.4 r"
   sodipodi:docname="popcorn.svg">
  <defs
     id="defs4" />
  <sodipodi:namedview
     id="base"
     pagecolor="#ffffff"
     bordercolor="#666666"
     borderopacity="1.0"
     inkscape:pageopacity="0.0"
     inkscape:pageshadow="2"
     inkscape:zoom="1.979899"
     inkscape:cx="203.22397"
     inkscape:cy="150.53951"
     inkscape:document-units="px"
     inkscape:current-layer="layer1"
     showgrid="false"
     inkscape:window-width="1920"
     inkscape:window-height="1017"
     inkscape:window-x="1912"
     inkscape:window-y="-8"
     inkscape:window-maximized="1" />
  <metadata
     id="metadata7">
    <rdf:RDF>
      <cc:Work
         rdf:about="">
        <dc:format>image/svg+xml</dc:format>
        <dc:type
           rdf:resource="http://purl.org/dc/dcmitype/StillImage" />
        <dc:title />
      </cc:Work>
    </rdf:RDF>
  </metadata>
  <g
     inkscape:label="Layer 1"
     inkscape:groupmode="layer"
     id="layer1"
     transform="translate(0,-796.36218)">
    <path
       sodipodi:type="arc"
       style="fill:#2c3e50;fill-opacity:1"
       id="path3450"
       sodipodi:cx="-111.42857"
       sodipodi:cy="508.07648"
       sodipodi:rx="179.28572"
       sodipodi:ry="179.28572"
       d="m 67.857147,508.07648 a 179.28572,179.28572 0 1 1 -358.571437,0 179.28572,179.28572 0 1 1 358.571437,0 z"
       transform="matrix(0.7139442,0,0,0.7139442,207.55378,561.62393)" />
    <path
       style="fill:#ffffff;fill-opacity:1"
       d="m 54.255814,951.11057 c 0,-0.0766 -3.67291,-22.27793 -8.16201,-49.33631 -4.48911,-27.05837 -8.14139,-49.24984 -8.11618,-49.31436 0.0413,-0.10562 10.151,-1.9019 10.22619,-1.81699 0.0173,0.0195 3.0384,22.55175 6.71357,50.07159 3.67517,27.51984 6.7085,50.14841 6.74073,50.2857 l 0.0587,0.24963 -3.73045,0 c -2.91858,0 -3.73047,-0.0303 -3.73047,-0.13926 z"
       id="path3023-9"
       inkscape:connector-curvature="0" />
    <path
       style="fill:#ffffff;fill-opacity:1"
       d="m 71.305474,950.77831 c -0.11329,-0.77202 -12.60975,-101.71211 -12.60975,-101.8553 0,-0.15069 13.10633,-2.44948 13.21596,-2.31801 0.0364,0.0437 2.12842,23.34452 4.64889,51.77966 2.52047,28.43514 4.60879,51.96236 4.64072,52.28271 l 0.0581,0.58246 -4.94232,0 -4.94233,0 -0.0692,-0.47152 0,0 z"
       id="path3025-9"
       inkscape:connector-curvature="0" />
    <path
       style="fill:#ffffff;fill-opacity:1"
       d="m 91.279554,951.11115 c -0.0504,-0.16435 -8.6109,-106.40286 -8.57643,-106.43668 0.067,-0.0657 13.75752,-2.38371 13.80406,-2.3372 0.0301,0.0301 1.24635,24.1608 2.70282,53.62381 1.456446,29.463 2.675056,53.95603 2.707996,54.42892 l 0.06,0.85983 -5.327896,0 c -4.16563,0 -5.33719,-0.0303 -5.37046,-0.13868 l 0,0 z"
       id="path3027-5"
       inkscape:connector-curvature="0" />
    <path
       style="fill:#ffffff;fill-opacity:1"
       d="m 112.2711,950.0017 c -0.15711,-2.83623 -4.54043,-109.59657 -4.50136,-109.63559 0.0418,-0.0418 11.57695,-2.04964 11.59607,-2.0185 0.0113,0.0184 0.94583,112.1366 0.93854,112.59712 l -0.005,0.3051 -3.97963,0 -3.97963,0 -0.0692,-1.24813 0,0 z"
       id="path3029-6"
       inkscape:connector-curvature="0" />
    <path
       style="fill:#ffffff;fill-opacity:1"
       d="m 130.06731,895.44463 0,-55.80522 0.30525,0.005 c 0.58572,0.01 9.12275,1.06058 9.19393,1.13173 0.0395,0.0395 0.0345,24.91216 -0.0113,55.27268 l -0.0831,55.20093 -4.70246,0 -4.70246,0 0,-55.8052 z"
       id="path3031-5"
       inkscape:connector-curvature="0" />
    <path
       style="fill:#ffffff;fill-opacity:1"
       d="m 151.16021,950.61189 c 0.008,-1.60932 3.52958,-107.99491 3.57607,-108.04138 0.0754,-0.0753 9.05083,1.0024 9.14673,1.09826 0.073,0.0729 -3.87581,104.74834 -4.02594,106.72123 l -0.0655,0.85983 -4.31736,0 -4.31736,0 0.003,-0.63794 0,0 z"
       id="path3033-3"
       inkscape:connector-curvature="0" />
    <path
       style="fill:#ffffff;fill-opacity:1"
       d="m 170.66041,950.66737 c 0.0345,-0.48146 6.02599,-105.38809 6.02599,-105.50951 0,-0.0518 7.7631,0.8701 7.80874,0.92724 0.0196,0.0246 -1.27716,23.53437 -2.8817,52.24409 -1.60451,28.70972 -2.91995,52.36175 -2.92319,52.56007 l -0.006,0.36057 -4.0328,0 -4.03281,0 0.0417,-0.58246 0,0 z"
       id="path3035-4"
       inkscape:connector-curvature="0" />
    <path
       style="fill:#ffffff;fill-opacity:1"
       d="m 184.71692,1007.0605 c 0.10048,-0.9156 3.11192,-37.1084 6.69207,-80.42837 3.58015,-43.31997 6.52525,-78.79191 6.54465,-78.82655 0.0194,-0.0347 1.98961,0.16635 4.37823,0.44665 l 4.34294,0.50964 -0.17119,1.59304 c -0.0942,0.87617 -3.31198,36.40119 -7.15071,78.94451 -3.83872,42.54332 -7.06294,77.44958 -7.16493,77.56948 -0.102,0.1199 -1.52759,0.5091 -3.16797,0.865 -1.64039,0.3558 -3.32076,0.7245 -3.73418,0.8192 -0.73636,0.1687 -0.74793,0.1383 -0.56891,-1.4926 l 0,0 z"
       id="path3037-2"
       inkscape:connector-curvature="0" />
    <path
       style="fill:#ff0000;fill-opacity:1"
       d="m 74.104824,1012.0305 c -4.49621,-1.0649 -4.34626,-1.0187 -4.00043,-1.2324 0.25235,-0.1558 -1.53599,-13.96292 -10.30381,-79.55198 -5.83502,-43.64988 -10.62289,-79.67236 -10.6397,-80.04996 l -0.0306,-0.68652 4.299,-0.74727 c 2.36445,-0.411 4.34001,-0.70626 4.39016,-0.65615 0.0887,0.0886 20.28127,162.74668 20.28127,163.37238 0,0.4332 -0.52266,0.3746 -3.99591,-0.4481 z"
       id="path3039-1"
       inkscape:connector-curvature="0" />
    <path
       style="fill:#ff0000;fill-opacity:1"
       d="m 91.512214,1015.9744 c -1.9867,-0.4614 -3.65633,-0.8829 -3.71028,-0.9369 -0.1661,-0.166 -15.05434,-168.38825 -14.91524,-168.52729 0.15886,-0.15879 8.83558,-1.67367 8.94719,-1.56211 0.0948,0.0947 13.84549,170.0742 13.84549,171.1504 0,0.4591 -0.10712,0.7413 -0.27749,0.7312 -0.15262,-0.01 -1.90298,-0.394 -3.88967,-0.8553 z"
       id="path3043-2"
       inkscape:connector-curvature="0" />
    <path
       style="fill:#ff0000;fill-opacity:1"
       d="m 109.92184,1020.1673 c -1.99548,-0.4663 -3.66027,-0.8801 -3.69953,-0.9195 -0.0392,-0.039 -2.0558,-39.86204 -4.48122,-88.49468 l -4.409846,-88.42295 0.56154,-0.17453 c 0.30884,-0.096 2.484576,-0.50312 4.834946,-0.90474 l 4.27342,-0.73021 0,0.67626 c 0,0.37194 1.64832,40.48763 3.66293,89.14595 2.01461,48.65833 3.66293,88.9758 3.66293,89.5945 0,0.9322 -0.0665,1.1207 -0.3885,1.1012 -0.21367,-0.013 -2.02117,-0.405 -4.01667,-0.8713 z"
       id="path3045-8"
       inkscape:connector-curvature="0" />
    <path
       style="fill:#ff0000;fill-opacity:1"
       d="m 121.64545,1016.9017 c -0.004,-3.0205 -0.34351,-44.38343 -0.75428,-91.9177 -0.41079,-47.53428 -0.72623,-86.44849 -0.70099,-86.47603 0.0618,-0.0673 8.82772,1.01063 8.89636,1.09398 0.1219,0.14801 0.34884,181.23825 0.22713,181.23825 -0.0728,0 -1.69298,0.3495 -3.60054,0.7767 -1.90756,0.4271 -3.60148,0.7766 -3.76427,0.7766 -0.23849,0 -0.29744,-1.067 -0.30341,-5.4918 l 0,0 z"
       id="path3047-4"
       inkscape:connector-curvature="0" />
    <path
       style="fill:#ff0000;fill-opacity:1"
       d="m 140.20606,956.76966 c 0.11173,-72.51035 0.24971,-115.66715 0.3702,-115.7876 0.10476,-0.1047 13.09451,1.4356 13.22747,1.56849 0.0766,0.0765 -5.39868,170.39695 -5.57045,173.28195 l -0.052,0.8722 -3.77393,0.841 c -2.07566,0.4625 -3.89146,0.8438 -4.03511,0.8473 -0.19988,0 -0.2389,-14.4631 -0.16624,-61.62334 z"
       id="path3049-9"
       inkscape:connector-curvature="0" />
    <path
       style="fill:#ff0000;fill-opacity:1"
       d="m 158.28085,1013.3515 c -0.002,-1.6889 6.45963,-169.45158 6.52944,-169.52136 0.11115,-0.1111 10.80136,1.21353 10.94397,1.35607 0.12357,0.1235 -9.09344,163.39719 -9.39099,166.35559 l -0.12484,1.2412 -3.81164,0.8135 c -2.09641,0.4474 -3.88657,0.8124 -3.97814,0.8112 -0.0916,-10e-4 -0.16708,-0.4765 -0.1678,-1.0562 z"
       id="path3051-6"
       inkscape:connector-curvature="0" />
    <path
       style="fill:#ff0000;fill-opacity:1"
       d="m 176.2706,1009.3378 c 0.0113,-2.0785 9.01633,-162.898 9.12769,-163.00931 0.0864,-0.0863 11.56476,1.18625 11.65096,1.29171 0.0772,0.0944 -13.37225,161.2234 -13.46428,161.3072 -0.0585,0.053 -1.15524,0.3176 -2.43727,0.5874 -1.28203,0.2698 -2.90537,0.623 -3.60743,0.7849 l -1.27648,0.2943 0.007,-1.2562 0,0 z"
       id="path3053-7"
       inkscape:connector-curvature="0" />
    <path
       style="fill:#ff0000;fill-opacity:1"
       d="m 193.27967,1006.0291 c 0.0561,-0.4576 3.28371,-35.96149 7.17252,-78.89746 3.88882,-42.93598 7.12056,-78.11538 7.18165,-78.17644 0.096,-0.096 7.75972,0.76257 7.82583,0.87676 0.057,0.0984 -18.72125,156.16394 -18.79848,156.23404 -0.0788,0.072 -3.1566,0.7952 -3.38193,0.7952 -0.0559,0 -0.0557,-0.3744 4.1e-4,-0.8321 l 0,0 z"
       id="path3055-6"
       inkscape:connector-curvature="0" />
    <path
       style="fill:#ffffff;fill-opacity:1"
       d="m 66.828264,1010.4019 c -1.46771,-0.3417 -2.70829,-0.6696 -2.75686,-0.7286 -0.0486,-0.059 -2.65093,-15.56984 -5.78306,-34.46839 -3.13214,-18.89856 -8.99398,-54.23626 -13.02633,-78.52823 -4.80554,-28.94987 -7.27497,-44.19948 -7.16734,-44.26085 0.26153,-0.14911 9.95963,-1.7785 10.04971,-1.68848 0.0723,0.0722 3.54076,25.91339 17.51868,130.51819 2.33055,17.4408 4.02441,29.62286 4.12838,29.69086 0.30632,0.2002 -0.19621,0.1096 -2.96318,-0.5345 z"
       id="path3423-1"
       inkscape:connector-curvature="0" />
    <path
       style="fill:#ffffff;fill-opacity:1"
       d="m 82.930304,1014.0425 c -2.10855,-0.4804 -3.85472,-0.9429 -3.88037,-1.0276 -0.14213,-0.4696 -20.3263,-164.06756 -20.25134,-164.14248 0.26646,-0.26634 2.00766,-0.35089 7.3529,-0.35707 l 5.91619,-0.007 0.0864,0.66683 c 0.0476,0.36674 0.22714,2.29073 0.39905,4.27551 0.17191,1.98477 3.45938,39.0509 7.30548,82.36916 3.84611,43.31826 6.97321,78.83595 6.94913,78.92825 -0.0276,0.1057 -1.46264,-0.1555 -3.87753,-0.7057 z"
       id="path3425-6"
       inkscape:connector-curvature="0" />
    <path
       style="fill:#ffffff;fill-opacity:1"
       d="m 100.66659,1018.0958 c -2.195906,-0.5092 -4.003046,-0.9422 -4.015856,-0.9623 -0.0351,-0.055 -13.58502,-168.03302 -13.57997,-168.35041 0.004,-0.25727 0.43959,-0.27457 6.91126,-0.27457 l 6.90689,0 0,0.47002 c 0,0.70779 8.288496,167.29026 8.398096,168.78536 0.0937,1.2776 0.0903,1.2942 -0.26648,1.2761 -0.19877,-0.01 -2.15803,-0.435 -4.35394,-0.9442 l 0,0 z"
       id="path3427-4"
       inkscape:connector-curvature="0" />
    <path
       style="fill:#ffffff;fill-opacity:1"
       d="m 118.01407,1022.0268 c -1.46106,-0.3393 -2.68261,-0.6431 -2.71456,-0.675 -0.032,-0.032 -1.63976,-38.35225 -3.57292,-85.15625 -1.93317,-46.804 -3.54699,-85.68068 -3.58629,-86.39261 l -0.0715,-1.29442 5.71219,0 5.71221,0 0.001,4.27551 c 6e-4,2.35153 0.31798,41.30773 0.70529,86.56933 0.82324,96.20504 0.73216,83.31624 0.58865,83.30204 -0.0648,-0.01 -1.31315,-0.2892 -2.77421,-0.6286 z"
       id="path3429-7"
       inkscape:connector-curvature="0" />
    <path
       style="fill:#ffffff;fill-opacity:1"
       d="m 130.16749,973.28289 c -2e-5,-26.03944 -0.0471,-64.76617 -0.10454,-86.05941 l -0.10452,-38.71496 4.82927,0 4.82927,0 -0.0958,68.76123 c -0.0527,37.81868 -0.1388,76.11267 -0.19147,85.09775 l -0.0957,16.3366 -4.41553,0.964 c -2.42854,0.5302 -4.4685,0.9629 -4.53326,0.9616 -0.0648,-10e-4 -0.11774,-21.30737 -0.11776,-47.34681 z"
       id="path3431-9"
       inkscape:connector-curvature="0" />
    <path
       style="fill:#ffffff;fill-opacity:1"
       d="m 149.07518,1014.413 c 0.0842,-1.7933 5.42341,-164.88605 5.42341,-165.66219 0,-0.213 0.56156,-0.24229 4.64498,-0.24229 l 4.64498,0 -0.10138,2.00047 c -0.11005,2.17176 -5.58016,144.86668 -5.97703,155.91891 -0.13325,3.7107 -0.27806,7.1043 -0.32181,7.5415 l -0.0796,0.7947 -3.87745,0.8408 c -2.13259,0.4624 -4.00815,0.8738 -4.16793,0.9143 -0.27582,0.07 -0.28531,-0.036 -0.18822,-2.1062 l 0,0 z"
       id="path3433-2"
       inkscape:connector-curvature="0" />
    <path
       style="fill:#ffffff;fill-opacity:1"
       d="m 167.21354,1011.937 c 0,-0.3605 2.08384,-37.10031 4.63075,-81.64395 2.54691,-44.54365 4.63075,-81.16756 4.63075,-81.38649 l 0,-0.39804 3.92437,0 3.92436,0 0,0.36136 c 0,0.19876 -2.0132,36.51655 -4.47378,80.7062 -2.46057,44.18965 -4.47377,80.54902 -4.47377,80.79862 l 0,0.4538 -2.39387,0.5131 c -1.31662,0.2822 -3.15322,0.6791 -4.08134,0.882 l -1.68747,0.3689 0,-0.6555 z"
       id="path3435-5"
       inkscape:connector-curvature="0" />
    <path
       style="fill:#ffffff;fill-opacity:1"
       d="m 184.56145,1008.0986 c 0.048,-0.4011 3.01483,-36.10228 6.59292,-79.33596 3.57808,-43.23367 6.54833,-78.98388 6.60053,-79.44492 l 0.0949,-0.83825 4.36923,0.0537 c 2.40309,0.0296 4.40254,0.089 4.44324,0.1322 0.0894,0.0948 -14.24467,158.27583 -14.35245,158.38363 -0.0417,0.042 -1.55531,0.4 -3.36373,0.7964 -1.80843,0.3964 -3.55442,0.7797 -3.88,0.8517 l -0.59194,0.1308 0.0873,-0.7293 0,0 z"
       id="path3437-5"
       inkscape:connector-curvature="0" />
  </g>
</svg>
